# xmcd
#
# Track frame offsets:
#	150
#	8700
#	22050
#	37912
#	52350
#	69037
#	78112
#	85387
#	95625
#	111375
#	125437
#	131887
#	144787
#	156225
#	168637
#	181087
#	197325
#	213187
#	221437
#	237037
#	248925
#	262387
#	275287
#	288900
#	299212
#	309562
#	325762
#
# Disc length: 4482 seconds
# Revision: 0
# Processed by: cddbd v1.5.2PL0 Copyright (c) Steve Scherf et al.
# Submitted via: dBpowerAMP V12.0
#
DISCID=8f11801b
DTITLE=Various Artist - Old-Time Music: On the Air, Vol. Two
DYEAR=1996
DGENRE=Country
TTITLE0=The Bing Brothers - 28th of January
TTITLE1=The Rhythm Rats - In the Pines
TTITLE2=Dan Gellert and Brad Leftwich - Echoes of the Ozarks
TTITLE3=Gail Heil &d Bob Bovee - Buddies in the Saddle
TTITLE4=Carl Jones and James Bryan - Kicking Up the Devil on a Holdiay - Dr. Hecock's Jig
TTITLE5=Joel Mabus - Henhouse Door
TTITLE6=Vesta Johnson - Sugar in My Coffee-O
TTITLE7=Hank Bradley - Bricks and Mortar
TTITLE8=Skip Gorman - Where the Old Red River Flows
TTITLE9=The Critton Hollow String Band - Crow Creek
TTITLE10=Cathy Fink - Rush in the Pepper
TTITLE11=The Herald Angels - My Carolina Home
TTITLE12=The Buckhannon Brothers - Seamus O'Brien
TTITLE13=Jeff Warne and Jeff Davis - Pat Do This
TTITLE14=The Renegades - Highlander's Farewell
TTITLE15=Cliff Perry and Laurel Bliss - Katie Dear
TTITLE16=Sheila Kay Adams - Camp a Little While in the Wilderness
TTITLE17=Nile Wilson - Tie Hacker Tune #1
TTITLE18=Walt Koken - Jay Bird Town
TTITLE19=Boiled Buzzards - Grey Haired Dancing Girl
TTITLE20=Bayou Seco - First Choice Two Step
TTITLE21=The Red Mules - Foggy Mountain Top
TTITLE22=Barry Shultz - Bibb County Hoedown
TTITLE23=Bunkhouse Orchestra - Nevada Girls
TTITLE24=Wilson Douglas - Brushy Run
TTITLE25=Texas Shorty and John Hartford - Georgia Boys
TTITLE26=Ben Hawker - When Can I Read My Title Clear
EXTD=
EXTT0=
EXTT1=
EXTT2=
EXTT3=
EXTT4=
EXTT5=
EXTT6=
EXTT7=
EXTT8=
EXTT9=
EXTT10=
EXTT11=
EXTT12=
EXTT13=
EXTT14=
EXTT15=
EXTT16=
EXTT17=
EXTT18=
EXTT19=
EXTT20=
EXTT21=
EXTT22=
EXTT23=
EXTT24=
EXTT25=
EXTT26=
PLAYORDER=
